<svg width="559" height="605" viewBox="0 0 559 605" fill="none" xmlns="http://www.w3.org/2000/svg">
<path fill-rule="evenodd" clip-rule="evenodd" d="M150.25 78.7883C181.904 116.999 206.21 138.47 217.869 148.769C221.842 152.279 224.347 154.491 225.173 155.626C227.855 159.314 226.845 162.629 222.25 165.227C219.695 166.672 214.442 168.136 211.812 168.136C208.837 168.136 207.815 166.994 207.815 166.994C207.606 166.797 207.408 166.628 207.205 166.455C205.739 165.202 204.044 163.755 196.261 150.013C183.963 131.033 173.671 115.289 173.39 115.025C172.741 114.416 172.752 114.436 195.007 154.041C197.866 160.605 196.63 163.865 196.004 165.517C195.843 165.942 195.722 166.26 195.722 166.501C195.722 168.892 195.066 170.15 192.1 173.44C187.155 178.927 184.944 185.092 183.349 197.851C181.56 212.154 176.53 222.257 162.589 239.548C154.429 249.67 153.094 251.525 151.035 255.605C148.442 260.743 147.729 263.62 147.44 270.108C147.134 276.967 147.729 281.398 149.836 287.956C151.681 293.697 153.606 297.488 158.528 305.071C162.776 311.614 165.222 316.477 165.222 318.379C165.222 319.893 165.512 319.895 172.094 318.417C187.847 314.879 200.637 308.656 207.831 301.031C212.283 296.311 213.328 293.704 213.362 287.237C213.384 283.006 213.235 282.12 212.085 279.686C210.213 275.725 206.806 272.432 199.296 267.325C189.456 260.635 185.254 255.249 184.093 247.842C183.14 241.764 184.245 237.476 189.689 226.128C195.323 214.383 196.719 209.378 197.664 197.538C198.274 189.89 199.119 186.873 201.328 184.452C203.633 181.927 205.707 181.072 211.41 180.297C220.708 179.034 226.628 176.641 231.495 172.181C235.716 168.312 237.483 164.583 237.754 158.971L237.96 154.717L235.601 151.981C227.057 142.073 144.529 71 144.003 71C143.891 71 146.702 74.505 150.25 78.7883ZM170.018 277.869C171.949 274.466 170.923 270.092 167.692 267.955C164.639 265.936 159.896 266.887 159.896 269.518C159.896 270.321 160.343 270.905 161.349 271.42C163.043 272.287 163.166 273.262 161.833 275.255C160.483 277.272 160.592 279.047 162.14 280.252C164.635 282.196 168.168 281.127 170.018 277.869ZM228.159 92.3257C224.347 91.7376 224.186 91.6686 225.98 91.3944C229.417 90.8686 237.534 91.5852 243.127 92.908C256.184 95.995 268.066 103.903 280.749 117.948L284.118 121.679L288.938 120.908C309.245 117.663 329.902 120.242 347.181 128.181C351.934 130.365 359.428 134.713 360.364 135.83C360.663 136.186 361.211 138.478 361.582 140.924C362.865 149.385 362.223 155.87 359.621 160.715C358.205 163.351 358.126 164.186 359.078 166.442C359.838 168.242 361.956 169.574 364.054 169.572C368.348 169.566 372.969 162.662 375.111 153.057L375.961 149.241L377.646 151.139C386.889 161.555 394.149 175.759 395.396 185.869L395.72 188.505L394.167 186.109C391.493 181.985 388.807 179.178 385.366 176.914C379.165 172.833 372.608 171.444 355.243 170.534C339.559 169.712 330.683 168.379 321.881 165.525C306.906 160.669 299.357 154.201 281.569 130.989C273.668 120.678 268.784 114.974 263.927 110.38C252.889 99.9419 242.043 94.4676 228.159 92.3257ZM363.902 115.346C364.297 108.437 365.239 103.88 367.133 99.7185C367.882 98.0713 368.584 96.723 368.693 96.723C368.801 96.723 368.475 97.939 367.969 99.4247C366.592 103.464 366.366 108.988 367.314 115.415C368.518 123.57 369.203 124.747 377.869 133.556C381.933 137.688 386.661 142.899 388.375 145.136L391.492 149.204L388.375 146.297C384.564 142.742 375.799 135.808 373.863 134.817C372.565 134.152 372.372 134.163 371.572 134.956C370.834 135.687 370.678 136.784 370.576 141.973C370.416 150.06 369.308 155.25 366.633 160.44C365.187 163.247 364.959 162.648 366.268 159.48C367.245 157.114 367.345 156.074 367.337 148.246C367.322 132.516 365.445 128.735 354.434 122.257C351.645 120.616 347.049 118.249 344.221 116.997C341.393 115.745 339.147 114.655 339.229 114.573C339.541 114.265 350.279 117.382 354.6 119.035C361.029 121.495 362.09 121.814 362.871 121.517C363.395 121.318 363.648 119.802 363.902 115.346ZM224.074 103.27C223.037 115.414 227.825 131.659 235.562 142.255C241.561 150.468 250.859 156.851 257.724 157.467C262.218 157.87 263.569 156.471 261.536 153.518C258.713 149.417 255.24 143.103 254.322 140.4C253.751 138.72 252.51 133.76 251.565 129.376C248.337 114.411 245.165 108.583 237.836 104.156C235.166 102.543 229.463 100.432 226.155 99.8316L224.394 99.512L224.074 103.27ZM354.517 221.111C318.355 206.63 305.62 194.06 305.62 172.852C305.62 169.731 305.728 167.177 305.859 167.177C305.991 167.177 307.39 168.207 308.968 169.466C316.301 175.316 324.512 177.814 347.244 181.113C360.621 183.054 368.148 184.621 375.092 186.912C397.163 194.192 410.819 208.966 414.075 229.09C415.021 234.937 414.466 245.903 412.932 251.682C411.721 256.246 408.025 264.474 407.045 264.79C406.773 264.877 406.506 263.841 406.437 262.431C406.065 254.875 402.226 247.519 395.778 242.008C388.447 235.743 378.598 230.755 354.517 221.111ZM327.384 219.517C327.891 221.021 328.677 224.445 329.13 227.127C332.026 244.272 322.979 258.123 305.377 263.49C303.514 264.059 296.174 265.487 289.066 266.664C274.678 269.047 268.257 270.734 261.806 273.825C257.231 276.017 251.692 279.301 252.021 279.627C252.127 279.732 253.171 279.484 254.341 279.075C262.476 276.234 271.53 274.764 285.286 274.052C290.745 273.77 296.954 273.32 299.084 273.054C311.339 271.518 319.832 267.816 326.437 261.13C330.113 257.409 332.304 253.943 334.069 249.055C335.188 245.955 335.34 244.803 335.349 239.309C335.358 233.712 335.222 232.688 334.009 229.244C332.421 224.731 330.547 221.343 328.175 218.696L326.461 216.783L327.384 219.517ZM345.707 256.407C340.902 246.135 339.799 236.217 342.431 226.967C342.713 225.979 343.166 225.17 343.438 225.17C343.71 225.17 344.844 225.78 345.957 226.524C348.171 228.007 352.612 230.503 364.441 236.918C379.203 244.923 387.62 251.122 393.343 258.204C398.356 264.406 401.458 271.469 402.951 280.083C403.796 284.962 403.301 296.702 402.042 301.615C398.073 317.106 388.849 329.275 375.692 336.375C373.764 337.415 372.034 338.269 371.847 338.273C371.659 338.277 372.362 336.501 373.407 334.326C377.833 325.124 378.337 316.173 374.991 306.209C372.942 300.109 368.765 292.665 360.33 280.085C350.524 265.458 348.119 261.565 345.707 256.407ZM255.207 290.1C239.998 292.558 223.301 300.563 209.882 311.833L205.887 315.188L209.398 315.733C227.72 318.578 232.654 321.101 245.363 334.122C252.676 341.614 255.147 343.282 261.213 344.823C270.123 347.085 278.906 342.927 281.918 335.022C283.264 331.49 283.085 325.64 281.541 322.703C277.866 315.711 267.166 313.45 261.991 318.573C257.68 322.84 258.936 329.268 264.297 330.374C265.524 330.627 265.489 330.574 263.984 329.896C261.638 328.84 260.619 327.379 260.606 325.051C260.576 319.592 266.856 316.527 272.699 319.149C276.976 321.069 278.676 323.578 278.676 327.975C278.676 334.748 272.88 339.85 266.136 339.016C262.531 338.57 258.123 336.277 255.759 333.618C249.811 326.929 252.128 316.373 260.433 312.324C266.755 309.24 275.159 310 281.675 314.244C289.163 319.122 292.348 323.579 298.797 338.209C300.897 342.972 303.599 348.334 304.801 350.124C310.909 359.22 318.229 363.682 327.046 363.682C331.908 363.682 335.567 362.798 340.169 360.512C343.589 358.813 348.436 355.585 348.087 355.24C347.988 355.141 346.569 355.579 344.935 356.214C335.308 359.949 325.522 359.691 319.839 355.554C316.261 352.949 313.373 347.761 311.889 341.271C311.633 340.148 310.785 335.188 310.006 330.248C308.03 317.725 306.132 312.097 301.709 305.638C297.183 299.03 288.479 293.483 278.75 291.007C272.681 289.461 261.762 289.041 255.207 290.1ZM233.906 193.287C235.22 188.463 239.463 183.862 243.828 182.528C246.603 181.681 252.34 182.222 255.038 183.586C260.265 186.229 264.06 192.251 263.237 196.596C262.232 201.897 253.591 206.137 243.651 206.206C238.574 206.242 236.699 205.563 234.76 202.988C233.56 201.393 233.105 196.231 233.906 193.287ZM253.703 185.475C256.31 187.058 256.98 189.399 255.448 191.566C254.392 193.058 251.123 194.475 248.734 194.475C245.145 194.475 241.23 191.941 241.23 189.619C241.23 184.955 248.738 182.459 253.703 185.475ZM87.8821 494.565C66.9261 494.565 54.8981 482.537 54.8981 460.713V407.765H67.5461V459.721C67.5461 474.353 73.6221 483.653 87.8821 483.653C102.762 483.653 108.094 474.353 108.094 459.721V407.765H120.742V460.713C120.742 482.537 108.714 494.565 87.8821 494.565ZM166.278 430.333C179.05 430.333 187.606 438.517 187.606 452.777V493.077H175.454V458.357C175.454 454.513 175.206 450.669 174.09 448.189C172.726 443.849 169.75 440.625 162.93 440.625C153.258 440.625 146.934 448.809 146.934 458.605V493.077H134.782V431.821H146.81V440.501C150.282 435.293 156.978 430.333 166.278 430.333ZM201.839 407.765V422.521H213.991V407.765H201.839ZM201.839 431.821V493.077H213.991V431.821H201.839ZM252.746 494.565C237.742 494.565 226.458 487.249 225.094 472.865L237.246 471.005C237.99 480.677 244.438 485.265 253.242 485.265C261.302 485.265 266.634 481.669 266.634 475.717C266.634 470.509 262.666 468.773 253.986 466.789L244.81 464.681C234.766 462.449 227.698 457.985 227.698 448.313C227.698 437.897 238.114 430.333 252.374 430.333C265.89 430.333 275.438 437.153 276.926 448.685L264.898 450.793C264.278 443.973 259.442 439.633 252.002 439.633C244.686 439.633 240.098 443.105 240.098 447.817C240.098 452.529 243.818 453.893 250.886 455.505L260.062 457.613C272.214 460.341 279.034 464.433 279.034 474.601C279.034 486.753 267.254 494.565 252.746 494.565ZM283.262 431.821L302.358 493.077H315.13L329.638 444.717H329.762L344.146 493.077H356.918L376.014 431.821H363.366L350.47 478.941H350.346L336.086 431.821H323.19L309.054 478.941H308.93L296.034 431.821H283.262ZM402.246 494.565C391.334 494.565 381.166 487.993 381.166 476.461C381.166 465.177 388.978 460.093 402.122 457.365L410.802 455.629C417.126 454.265 420.226 452.901 420.226 447.817C420.226 442.981 416.01 439.509 408.694 439.509C400.51 439.509 395.178 444.593 394.806 452.529L382.406 451.413C383.15 438.517 393.442 430.333 408.446 430.333C423.574 430.333 432.502 437.525 432.502 451.041V493.077H420.722V486.257H420.598C417.746 490.721 411.298 494.565 402.246 494.565ZM405.47 485.637C414.026 485.637 420.598 480.057 420.598 470.509V462.449C409.438 464.309 403.362 465.921 399.518 468.029C396.046 469.889 393.69 472.369 393.69 476.213C393.69 481.917 398.526 485.637 405.47 485.637ZM446.817 431.821V516.017H458.969V484.025C462.069 488.861 468.393 494.565 479.057 494.565C495.549 494.565 506.461 481.421 506.461 462.449C506.461 443.477 495.549 430.333 479.057 430.333C468.269 430.333 461.945 436.161 458.845 441.121V431.821H446.817ZM494.061 462.449C494.061 475.097 488.109 484.645 476.453 484.645C465.045 484.645 458.473 475.097 458.473 462.449C458.473 449.801 465.045 440.253 476.453 440.253C488.109 440.253 494.061 449.801 494.061 462.449Z" fill="#FC72FF"/>
</svg>
