<svg width="647" height="172" viewBox="0 0 647 172" fill="none" xmlns="http://www.w3.org/2000/svg">
<path fill-rule="evenodd" clip-rule="evenodd" d="M13.5211 8.3859C31.3525 29.9041 45.0446 41.9951 51.6124 47.7948C53.8508 49.7715 55.2617 51.0174 55.7268 51.6566C57.2377 53.7333 56.6691 55.6002 54.0806 57.0633C52.6412 57.8768 49.6819 58.7011 48.2002 58.7011C46.5243 58.7011 45.9489 58.0583 45.9489 58.0583C45.8311 57.9472 45.7195 57.8519 45.6055 57.7546L45.6054 57.7544C44.7791 57.0489 43.8247 56.234 39.4399 48.4954C32.5122 37.8073 26.7145 28.941 26.5564 28.7925C26.1906 28.4492 26.1969 28.4608 38.7335 50.7636C40.3444 54.4603 39.6479 56.2963 39.2953 57.2262C39.2044 57.4656 39.1364 57.6449 39.1364 57.7804C39.1364 59.1273 38.7669 59.8352 37.0959 61.6884C34.3103 64.7782 33.065 68.2499 32.1661 75.435C31.1584 83.4894 28.3248 89.1789 20.472 98.9165C15.8752 104.617 15.123 105.661 13.9631 107.959C12.5022 110.852 12.1004 112.472 11.9376 116.126C11.7655 119.988 12.1007 122.483 13.2876 126.177C14.3267 129.41 15.4113 131.545 18.1841 135.815C20.577 139.5 21.9548 142.238 21.9548 143.309C21.9548 144.162 22.1184 144.163 25.8264 143.33C34.7 141.338 41.9054 137.834 45.9578 133.54C48.4658 130.882 49.0546 129.414 49.0737 125.772C49.0862 123.389 49.0019 122.89 48.3542 121.52C47.2999 119.289 45.3805 117.434 41.15 114.559C35.6068 110.791 33.2393 107.758 32.5853 103.587C32.0489 100.164 32.6712 97.7494 35.7377 91.3592C38.9117 84.7447 39.6982 81.9261 40.2303 75.259C40.574 70.9517 41.0499 69.2529 42.2946 67.8893C43.5927 66.4675 44.7614 65.986 47.9741 65.5496C53.2117 64.8381 56.5469 63.4908 59.2883 60.9791C61.6665 58.8001 62.6616 56.7006 62.8144 53.54L62.9303 51.1444L61.6013 49.6038C56.7885 44.0244 10.298 4 10.0018 4C9.93856 4 11.5223 5.97379 13.5211 8.3859ZM24.6564 120.496C25.7446 118.58 25.1664 116.117 23.3462 114.914C21.6264 113.776 18.9548 114.312 18.9548 115.794C18.9548 116.246 19.2063 116.575 19.773 116.865C20.7273 117.353 20.7965 117.902 20.0457 119.024C19.2854 120.16 19.3467 121.16 20.2189 121.838C21.6245 122.933 23.6143 122.331 24.6564 120.496ZM57.409 16.0094C55.2618 15.6782 55.1713 15.6393 56.1817 15.4849C58.1181 15.1888 62.6903 15.5924 65.8411 16.3373C73.1967 18.0757 79.8899 22.5291 87.0345 30.4383L88.9326 32.5395L91.6479 32.1055C103.087 30.2777 114.724 31.7303 124.457 36.201C127.135 37.4309 131.357 39.8792 131.884 40.5083C132.052 40.7089 132.361 41.9995 132.57 43.3769C133.293 48.1417 132.931 51.794 131.465 54.5219C130.668 56.0064 130.623 56.4768 131.159 57.7472C131.587 58.761 132.781 59.5113 133.963 59.5097C136.381 59.5065 138.985 55.6188 140.191 50.2094L140.67 48.0607L141.62 49.1298C146.826 54.9951 150.916 62.9939 151.618 68.6874L151.801 70.1719L150.926 68.8224C149.42 66.5002 147.907 64.9193 145.969 63.6443C142.475 61.3461 138.781 60.5639 128.999 60.0514C120.164 59.5885 115.164 58.8382 110.206 57.2307C101.77 54.496 97.5172 50.8539 87.4965 37.7821C83.0456 31.9759 80.2946 28.7636 77.5581 26.1766C71.34 20.2984 65.2302 17.2155 57.409 16.0094ZM133.877 28.973C134.099 25.0824 134.63 22.5161 135.697 20.1726C136.119 19.2449 136.515 18.4857 136.576 18.4857C136.637 18.4857 136.453 19.1704 136.168 20.0071C135.392 22.2816 135.265 25.3925 135.799 29.0119C136.478 33.6043 136.863 34.2669 141.745 39.2277C144.035 41.5545 146.698 44.4891 147.664 45.749L149.419 48.0399L147.664 46.4027C145.517 44.4006 140.579 40.4959 139.489 39.9378C138.757 39.5634 138.649 39.5699 138.198 40.0163C137.782 40.4276 137.694 41.0457 137.637 43.9677C137.547 48.5217 136.923 51.4448 135.416 54.3675C134.601 55.9483 134.472 55.611 135.21 53.8266C135.76 52.4944 135.816 51.9087 135.812 47.5002C135.804 38.6422 134.746 36.5127 128.543 32.8647C126.972 31.9406 124.383 30.6078 122.79 29.9028C121.197 29.1978 119.932 28.5838 119.978 28.5379C120.154 28.3641 126.203 30.1195 128.637 31.0507C132.259 32.4358 132.857 32.6153 133.296 32.4483C133.591 32.3362 133.734 31.4826 133.877 28.973ZM55.1077 22.1726C54.5238 29.0113 57.2208 38.1597 61.5797 44.1264C64.9588 48.7517 70.1968 52.346 74.0637 52.6931C76.5957 52.9203 77.3566 52.1322 76.2111 50.4691C74.6209 48.1598 72.6649 44.6041 72.1473 43.0819C71.8257 42.1361 71.127 39.3426 70.5944 36.8741C68.7761 28.4464 66.989 25.1644 62.8607 22.6716C61.3564 21.7631 58.1437 20.5742 56.2805 20.2363L55.2883 20.0563L55.1077 22.1726ZM128.59 88.5336C108.219 80.3788 101.045 73.3003 101.045 61.3569C101.045 59.5993 101.106 58.1613 101.18 58.1613C101.254 58.1613 102.042 58.7413 102.931 59.4503C107.062 62.7445 111.688 64.1515 124.493 66.0089C132.029 67.102 136.269 67.9849 140.181 69.2747C152.614 73.3746 160.307 81.6946 162.141 93.0269C162.674 96.3197 162.361 102.495 161.497 105.749C160.815 108.32 158.733 112.953 158.181 113.131C158.028 113.18 157.877 112.597 157.838 111.803C157.629 107.548 155.466 103.405 151.834 100.302C147.704 96.7734 142.156 93.9643 128.59 88.5336ZM113.305 87.6359C113.591 88.4829 114.034 90.4113 114.289 91.9214C115.92 101.576 110.824 109.376 100.909 112.399C99.8585 112.719 95.7238 113.524 91.7199 114.187C83.6148 115.529 79.9974 116.478 76.3633 118.219C73.7861 119.453 70.6658 121.303 70.8513 121.486C70.911 121.546 71.4993 121.406 72.1582 121.176C76.7411 119.576 81.8413 118.748 89.5905 118.347C92.6654 118.188 96.1631 117.935 97.3631 117.785C104.267 116.92 109.051 114.835 112.772 111.07C114.843 108.975 116.077 107.023 117.071 104.27C117.702 102.524 117.787 101.876 117.792 98.7815C117.797 95.6298 117.721 95.0531 117.038 93.1136C116.143 90.5724 115.087 88.6645 113.751 87.1736L112.786 86.0961L113.305 87.6359ZM123.627 108.411C120.921 102.626 120.299 97.0404 121.782 91.8315C121.941 91.275 122.196 90.8194 122.349 90.8194C122.503 90.8194 123.141 91.1627 123.768 91.5821C125.015 92.4169 127.517 93.8229 134.181 97.4355C142.497 101.943 147.238 105.434 150.462 109.422C153.286 112.915 155.033 116.892 155.874 121.743C156.351 124.491 156.072 131.102 155.363 133.869C153.127 142.593 147.93 149.445 140.519 153.444C139.433 154.029 138.458 154.51 138.352 154.512C138.247 154.515 138.643 153.514 139.232 152.29C141.725 147.107 142.009 142.067 140.124 136.456C138.97 133.021 136.616 128.829 131.865 121.744C126.341 113.507 124.986 111.315 123.627 108.411ZM72.6461 127.384C64.0784 128.768 54.6727 133.277 47.1134 139.623L44.8628 141.512L46.8406 141.819C57.1619 143.421 59.9412 144.842 67.1005 152.175C71.2206 156.394 72.612 157.333 76.0292 158.201C81.0485 159.475 85.9962 157.133 87.6931 152.681C88.4513 150.693 88.3504 147.398 87.4807 145.744C85.4107 141.807 79.3826 140.534 76.4675 143.418C74.0394 145.822 74.7469 149.441 77.7668 150.064C78.4581 150.207 78.4385 150.176 77.5906 149.795C76.269 149.201 75.6949 148.377 75.6875 147.066C75.6706 143.992 79.2084 142.266 82.4996 143.743C84.9094 144.824 85.8667 146.237 85.8667 148.713C85.8667 152.527 82.6019 155.401 78.8028 154.931C76.7721 154.68 74.2887 153.388 72.957 151.891C69.6063 148.124 70.9115 142.18 75.5899 139.899C79.1514 138.163 83.8856 138.591 87.5565 140.981C91.7747 143.728 93.5687 146.238 97.2016 154.476C98.3847 157.159 99.9066 160.178 100.584 161.186C104.025 166.309 108.148 168.821 113.115 168.821C115.854 168.821 117.915 168.323 120.508 167.036C122.434 166.079 125.165 164.262 124.968 164.067C124.912 164.012 124.113 164.258 123.193 164.615C117.769 166.719 112.257 166.574 109.055 164.244C107.039 162.777 105.413 159.855 104.577 156.201C104.432 155.568 103.955 152.775 103.516 149.993C102.403 142.941 101.334 139.771 98.8418 136.134C96.2921 132.413 91.3893 129.289 85.9087 127.895C82.4895 127.025 76.3385 126.788 72.6461 127.384ZM60.6467 72.865C61.3866 70.1481 63.7768 67.5571 66.2357 66.8062C67.7992 66.329 71.031 66.6338 72.5506 67.4016C75.4955 68.8904 77.6334 72.2815 77.1695 74.7284C76.6036 77.7135 71.7357 80.1013 66.1362 80.1402C63.2761 80.1601 62.2198 79.778 61.1276 78.3278C60.4515 77.4298 60.1954 74.5224 60.6467 72.865ZM71.7987 68.4653C73.2673 69.3571 73.6451 70.6755 72.7816 71.8955C72.1868 72.736 70.3454 73.5338 68.9998 73.5338C66.9781 73.5338 64.7725 72.1071 64.7725 70.7994C64.7725 68.1725 69.0019 66.7674 71.7987 68.4653ZM242.076 121.868C222.81 121.868 211.752 110.81 211.752 90.7459V42.0679H223.38V89.8339C223.38 103.286 228.966 111.836 242.076 111.836C255.756 111.836 260.658 103.286 260.658 89.8339V42.0679H272.286V90.7459C272.286 110.81 261.228 121.868 242.076 121.868ZM314.15 62.8159C325.892 62.8159 333.758 70.3399 333.758 83.4499V120.5H322.586V88.5799C322.586 85.0459 322.358 81.5119 321.332 79.2319C320.078 75.2419 317.342 72.2779 311.072 72.2779C302.18 72.2779 296.366 79.8019 296.366 88.8079V120.5H285.194V64.1839H296.252V72.1639C299.444 67.3759 305.6 62.8159 314.15 62.8159ZM346.843 42.0679V55.6339H358.015V42.0679H346.843ZM346.843 64.1839V120.5H358.015V64.1839H346.843ZM393.644 121.868C379.85 121.868 369.476 115.142 368.222 101.918L379.394 100.208C380.078 109.1 386.006 113.318 394.1 113.318C401.51 113.318 406.412 110.012 406.412 104.54C406.412 99.7519 402.764 98.1559 394.784 96.3319L386.348 94.3939C377.114 92.3419 370.616 88.2379 370.616 79.3459C370.616 69.7699 380.192 62.8159 393.302 62.8159C405.728 62.8159 414.506 69.0859 415.874 79.6879L404.816 81.6259C404.246 75.3559 399.8 71.3659 392.96 71.3659C386.234 71.3659 382.016 74.5579 382.016 78.8899C382.016 83.2219 385.436 84.4759 391.934 85.9579L400.37 87.8959C411.542 90.4039 417.812 94.1659 417.812 103.514C417.812 114.686 406.982 121.868 393.644 121.868ZM421.699 64.1839L439.255 120.5H450.997L464.335 76.0399H464.449L477.673 120.5H489.415L506.971 64.1839H495.343L483.487 107.504H483.373L470.263 64.1839H458.407L445.411 107.504H445.297L433.441 64.1839H421.699ZM531.088 121.868C521.056 121.868 511.708 115.826 511.708 105.224C511.708 94.8499 518.89 90.1759 530.974 87.6679L538.954 86.0719C544.768 84.8179 547.618 83.5639 547.618 78.8899C547.618 74.4439 543.742 71.2519 537.016 71.2519C529.492 71.2519 524.59 75.9259 524.248 83.2219L512.848 82.1959C513.532 70.3399 522.994 62.8159 536.788 62.8159C550.696 62.8159 558.904 69.4279 558.904 81.8539V120.5H548.074V114.23H547.96C545.338 118.334 539.41 121.868 531.088 121.868ZM534.052 113.66C541.918 113.66 547.96 108.53 547.96 99.7519V92.3419C537.7 94.0519 532.114 95.5339 528.58 97.4719C525.388 99.1819 523.222 101.462 523.222 104.996C523.222 110.24 527.668 113.66 534.052 113.66ZM572.064 64.1839V141.59H583.236V112.178C586.086 116.624 591.9 121.868 601.704 121.868C616.866 121.868 626.898 109.784 626.898 92.3419C626.898 74.8999 616.866 62.8159 601.704 62.8159C591.786 62.8159 585.972 68.1739 583.122 72.7339V64.1839H572.064ZM615.498 92.3419C615.498 103.97 610.026 112.748 599.31 112.748C588.822 112.748 582.78 103.97 582.78 92.3419C582.78 80.7139 588.822 71.9359 599.31 71.9359C610.026 71.9359 615.498 80.7139 615.498 92.3419Z" fill="white"/>
</svg>
