<svg width="559" height="605" viewBox="0 0 559 605" fill="none" xmlns="http://www.w3.org/2000/svg">
<path d="M173.736 44.0243C165.867 42.8103 165.535 42.6678 169.238 42.1019C176.334 41.0165 193.09 42.4957 204.636 45.2265C231.592 51.5993 256.12 67.9247 282.302 96.9185L289.258 104.621L299.208 103.03C341.128 96.3298 383.774 101.655 419.443 118.044C429.255 122.552 444.726 131.527 446.659 133.834C447.275 134.569 448.406 139.3 449.172 144.349C451.821 161.816 450.495 175.205 445.124 185.205C442.201 190.647 442.038 192.371 444.003 197.029C445.572 200.745 449.945 203.496 454.276 203.49C463.14 203.478 472.681 189.226 477.101 169.396L478.857 161.52L482.336 165.439C501.416 186.94 516.403 216.262 518.977 237.134L519.648 242.576L516.44 237.628C510.921 229.115 505.375 223.32 498.273 218.646C485.471 210.222 471.935 207.354 436.086 205.475C403.71 203.778 385.385 201.028 367.216 195.135C336.301 185.11 320.717 171.759 283.995 123.84C267.684 102.555 257.603 90.7792 247.575 81.2957C224.788 59.7472 202.397 48.446 173.736 44.0243Z" fill="white"/>
<path d="M453.962 91.547C454.777 77.2845 456.722 67.8772 460.631 59.2861C462.179 55.8855 463.629 53.1022 463.853 53.1022C464.076 53.1022 463.404 55.6124 462.357 58.6796C459.515 67.0174 459.048 78.4214 461.006 91.6895C463.492 108.524 464.905 110.953 482.795 129.139C491.186 137.669 500.946 148.427 504.484 153.045L510.918 161.443L504.484 155.442C496.617 148.102 478.523 133.788 474.526 131.742C471.847 130.37 471.448 130.393 469.795 132.03C468.272 133.538 467.951 135.804 467.739 146.515C467.41 163.209 465.123 173.925 459.601 184.639C456.615 190.434 456.144 189.197 458.846 182.656C460.864 177.773 461.069 175.626 461.054 159.465C461.023 126.993 457.147 119.186 434.416 105.813C428.659 102.426 419.171 97.5399 413.333 94.9555C407.495 92.3712 402.858 90.1202 403.027 89.952C403.671 89.3149 425.838 95.75 434.76 99.1635C448.032 104.241 450.222 104.899 451.834 104.287C452.915 103.876 453.437 100.747 453.962 91.547Z" fill="white"/>
<path d="M189.02 147.097C173.046 125.224 163.163 91.6875 165.303 66.6177L165.964 58.8596L169.6 59.5196C176.428 60.7583 188.202 65.1167 193.714 68.4471C208.843 77.5853 215.392 89.6167 222.055 120.511C224.007 129.56 226.568 139.801 227.746 143.268C229.643 148.848 236.811 161.883 242.639 170.348C246.836 176.445 244.048 179.334 234.769 178.501C220.598 177.228 201.403 164.052 189.02 147.097Z" fill="white"/>
<path d="M434.587 309.887C359.937 279.992 333.645 254.044 333.645 210.261C333.645 203.818 333.868 198.546 334.14 198.546C334.411 198.546 337.3 200.673 340.558 203.272C355.695 215.348 372.646 220.506 419.574 227.315C447.188 231.322 462.728 234.558 477.063 239.287C522.626 254.316 550.816 284.816 557.538 326.358C559.492 338.429 558.347 361.066 555.179 372.996C552.679 382.42 545.049 399.405 543.025 400.056C542.465 400.237 541.914 398.098 541.77 395.188C541.002 379.589 533.077 364.402 519.767 353.026C504.633 340.092 484.301 329.795 434.587 309.887Z" fill="white"/>
<path d="M382.18 322.306C381.244 316.77 379.623 309.7 378.575 306.596L376.67 300.951L380.208 304.901C385.104 310.366 388.973 317.361 392.252 326.676C394.755 333.786 395.037 335.9 395.018 347.454C394.999 358.796 394.686 361.174 392.375 367.573C388.731 377.664 384.209 384.82 376.62 392.501C362.984 406.304 345.452 413.946 320.152 417.116C315.755 417.667 302.937 418.595 291.669 419.177C263.271 420.647 244.58 423.681 227.786 429.546C225.371 430.39 223.216 430.903 222.997 430.685C222.317 430.013 233.752 423.233 243.196 418.708C256.514 412.328 269.77 408.846 299.472 403.927C314.145 401.496 329.297 398.547 333.145 397.374C369.48 386.293 388.158 357.699 382.18 322.306Z" fill="white"/>
<path d="M416.401 382.752C406.482 361.546 404.205 341.071 409.638 321.976C410.22 319.936 411.154 318.266 411.717 318.266C412.279 318.266 414.62 319.524 416.917 321.062C421.488 324.122 430.654 329.276 455.076 342.519C485.55 359.045 502.925 371.841 514.741 386.46C525.089 399.264 531.492 413.845 534.574 431.627C536.319 441.699 535.297 465.935 532.698 476.078C524.505 508.058 505.462 533.178 478.301 547.836C474.322 549.983 470.749 551.746 470.363 551.754C469.976 551.762 471.426 548.095 473.585 543.605C482.722 524.609 483.762 506.13 476.854 485.562C472.624 472.969 464 457.602 446.588 431.631C426.344 401.436 421.381 393.4 416.401 382.752Z" fill="white"/>
<path d="M136.006 497.171C163.709 473.907 198.177 457.38 229.574 452.307C243.105 450.12 265.646 450.988 278.176 454.178C298.261 459.29 316.228 470.741 325.571 484.383C334.703 497.716 338.621 509.335 342.7 535.186C344.309 545.384 346.059 555.625 346.588 557.943C349.652 571.341 355.612 582.05 362.999 587.429C374.731 595.969 394.934 596.501 414.807 588.79C418.181 587.481 421.109 586.577 421.315 586.781C422.035 587.493 412.028 594.156 404.968 597.663C395.468 602.383 387.915 604.207 377.878 604.207C359.676 604.207 344.565 594.998 331.955 576.22C329.473 572.524 323.896 561.454 319.561 551.622C306.247 521.42 299.673 512.219 284.215 502.15C270.763 493.389 253.413 491.819 240.362 498.184C223.218 506.545 218.434 528.336 230.713 542.145C235.594 547.633 244.694 552.368 252.136 553.288C266.058 555.01 278.022 544.476 278.022 530.496C278.022 521.419 274.514 516.238 265.683 512.275C253.622 506.861 240.658 513.189 240.72 524.458C240.747 529.264 242.85 532.282 247.694 534.461C250.801 535.859 250.873 535.97 248.339 535.447C237.273 533.164 234.68 519.895 243.578 511.085C254.261 500.51 276.351 505.177 283.937 519.612C287.124 525.675 287.494 537.751 284.716 545.042C278.497 561.362 260.365 569.945 241.972 565.275C229.449 562.095 224.35 558.651 209.252 543.184C183.016 516.303 172.83 511.095 135.007 505.222L127.759 504.097L136.006 497.171Z" fill="white"/>
<path fill-rule="evenodd" clip-rule="evenodd" d="M12.9034 16.078C100.52 121.845 160.865 165.482 167.571 174.701C173.108 182.314 171.024 189.158 161.539 194.522C156.264 197.504 145.419 200.525 139.989 200.525C133.847 200.525 131.739 198.169 131.739 198.169C128.178 194.81 126.173 195.397 107.886 163.113C82.4984 123.932 61.2524 91.4296 60.6728 90.8854C59.3325 89.6268 59.3555 89.6694 105.297 171.428C112.72 188.468 106.774 194.723 106.774 197.15C106.774 202.088 105.42 204.683 99.2961 211.476C89.0879 222.803 84.5246 235.53 81.2304 261.869C77.5376 291.395 67.1534 312.252 38.3758 347.948C21.5304 368.844 18.774 372.674 14.5234 381.096C9.16947 391.701 7.69731 397.642 7.10065 411.034C6.47001 425.194 7.69827 434.341 12.0478 447.879C15.8556 459.732 19.8303 467.558 29.9916 483.211C38.7606 496.72 43.8097 506.759 43.8097 510.686C43.8097 513.81 44.4094 513.814 57.9977 510.763C90.5162 503.459 116.921 490.613 131.772 474.872C140.962 465.128 143.12 459.747 143.19 446.395C143.236 437.662 142.927 435.833 140.554 430.809C136.69 422.631 129.656 415.832 114.153 405.291C93.8393 391.48 85.1632 380.361 82.7666 365.069C80.8007 352.522 83.0813 343.67 94.3189 320.245C105.95 295.997 108.833 285.665 110.783 261.224C112.042 245.434 113.786 239.206 118.347 234.208C123.105 228.996 127.387 227.231 139.16 225.631C158.355 223.023 170.577 218.083 180.623 208.876C189.338 200.888 192.985 193.192 193.544 181.606L193.969 172.824L189.099 167.176C171.462 146.723 1.0921 0 0.00671303 0C-0.225155 0 5.57859 7.2356 12.9034 16.078ZM53.7101 427.056C57.6978 420.032 55.5791 411.002 48.9089 406.591C42.6065 402.423 32.816 404.386 32.816 409.818C32.816 411.475 33.7375 412.681 35.8143 413.745C39.3113 415.534 39.5651 417.547 36.8137 421.66C34.0273 425.825 34.2522 429.488 37.4484 431.977C42.5994 435.989 49.8913 433.782 53.7101 427.056Z" fill="white"/>
<path fill-rule="evenodd" clip-rule="evenodd" d="M206.082 230.237C197.071 232.99 188.312 242.488 185.601 252.448C183.947 258.524 184.885 269.182 187.363 272.474C191.366 277.79 195.237 279.191 205.718 279.118C226.238 278.975 244.077 270.222 246.151 259.279C247.851 250.309 240.016 237.878 229.224 232.42C223.655 229.605 211.812 228.488 206.082 230.237ZM230.071 248.894C233.235 244.422 231.851 239.588 226.469 236.319C216.22 230.095 200.72 235.246 200.72 244.876C200.72 249.67 208.803 254.9 216.212 254.9C221.143 254.9 227.891 251.975 230.071 248.894Z" fill="white"/>
</svg>
