<svg width="559" height="605" viewBox="0 0 559 605" fill="none" xmlns="http://www.w3.org/2000/svg">
<path fill-rule="evenodd" clip-rule="evenodd" d="M146.363 78.7883C178.017 116.999 202.322 138.47 213.981 148.769C217.955 152.279 220.459 154.491 221.285 155.626C223.967 159.314 222.958 162.629 218.363 165.227C215.808 166.672 210.554 168.136 207.924 168.136C204.949 168.136 203.928 166.994 203.928 166.994C203.718 166.797 203.52 166.628 203.318 166.455C201.851 165.202 200.157 163.755 192.373 150.013C180.075 131.033 169.784 115.289 169.503 115.025C168.854 114.416 168.865 114.436 191.119 154.041C193.979 160.605 192.743 163.865 192.116 165.517C191.955 165.942 191.834 166.26 191.834 166.501C191.834 168.892 191.178 170.15 188.212 173.44C183.267 178.927 181.057 185.092 179.461 197.851C177.672 212.154 172.642 222.257 158.702 239.548C150.542 249.67 149.207 251.525 147.148 255.605C144.554 260.743 143.841 263.62 143.552 270.108C143.247 276.967 143.842 281.398 145.949 287.956C147.793 293.697 149.718 297.488 154.641 305.071C158.888 311.614 161.334 316.477 161.334 318.379C161.334 319.893 161.625 319.895 168.207 318.417C183.959 314.879 196.75 308.656 203.944 301.031C208.396 296.311 209.441 293.704 209.475 287.237C209.497 283.006 209.347 282.12 208.198 279.686C206.326 275.725 202.919 272.432 195.409 267.325C185.569 260.635 181.366 255.249 180.205 247.842C179.253 241.764 180.358 237.476 185.801 226.128C191.436 214.383 192.832 209.378 193.776 197.538C194.386 189.89 195.231 186.873 197.441 184.452C199.745 181.927 201.82 181.072 207.523 180.297C216.82 179.034 222.741 176.641 227.607 172.181C231.829 168.312 233.596 164.583 233.867 158.971L234.072 154.717L231.713 151.981C223.17 142.073 140.642 71 140.116 71C140.003 71 142.815 74.505 146.363 78.7883ZM166.13 277.869C168.062 274.466 167.035 270.092 163.804 267.955C160.751 265.936 156.009 266.887 156.009 269.518C156.009 270.321 156.455 270.905 157.461 271.42C159.155 272.287 159.278 273.262 157.945 275.255C156.596 277.272 156.705 279.047 158.253 280.252C160.748 282.196 164.28 281.127 166.13 277.869ZM224.271 92.3257C220.46 91.7376 220.299 91.6686 222.093 91.3944C225.53 90.8686 233.646 91.5852 239.24 92.908C252.297 95.995 264.179 103.903 276.861 117.948L280.231 121.679L285.051 120.908C305.357 117.663 326.015 120.242 343.293 128.181C348.046 130.365 355.541 134.713 356.477 135.83C356.775 136.186 357.323 138.478 357.694 140.924C358.978 149.385 358.335 155.87 355.733 160.715C354.317 163.351 354.238 164.186 355.19 166.442C355.95 168.242 358.069 169.574 360.167 169.572C364.46 169.566 369.082 162.662 371.223 153.057L372.074 149.241L373.759 151.139C383.001 161.555 390.261 175.759 391.508 185.869L391.833 188.505L390.279 186.109C387.606 181.985 384.919 179.178 381.479 176.914C375.278 172.833 368.721 171.444 351.355 170.534C335.672 169.712 326.796 168.379 317.994 165.525C303.019 160.669 295.47 154.201 277.681 130.989C269.78 120.678 264.897 114.974 260.039 110.38C249.001 99.9419 238.155 94.4676 224.271 92.3257ZM360.015 115.346C360.409 108.437 361.351 103.88 363.245 99.7185C363.995 98.0713 364.697 96.723 364.806 96.723C364.914 96.723 364.588 97.939 364.081 99.4247C362.704 103.464 362.478 108.988 363.427 115.415C364.631 123.57 365.315 124.747 373.981 133.556C378.046 137.688 382.774 142.899 384.488 145.136L387.604 149.204L384.488 146.297C380.677 142.742 371.912 135.808 369.976 134.817C368.678 134.152 368.485 134.163 367.684 134.956C366.946 135.687 366.791 136.784 366.688 141.973C366.529 150.06 365.421 155.25 362.746 160.44C361.299 163.247 361.071 162.648 362.38 159.48C363.358 157.114 363.457 156.074 363.45 148.246C363.435 132.516 361.558 128.735 350.546 122.257C347.757 120.616 343.161 118.249 340.334 116.997C337.506 115.745 335.26 114.655 335.341 114.573C335.653 114.265 346.391 117.382 350.713 119.035C357.142 121.495 358.203 121.814 358.984 121.517C359.507 121.318 359.76 119.802 360.015 115.346ZM220.186 103.27C219.15 115.414 223.937 131.659 231.675 142.255C237.673 150.468 246.972 156.851 253.836 157.467C258.331 157.87 259.681 156.471 257.648 153.518C254.825 149.417 251.353 143.103 250.434 140.4C249.863 138.72 248.623 133.76 247.677 129.376C244.45 114.411 241.277 108.583 233.949 104.156C231.279 102.543 225.575 100.432 222.268 99.8316L220.507 99.512L220.186 103.27ZM350.629 221.111C314.468 206.63 301.732 194.06 301.732 172.852C301.732 169.731 301.84 167.177 301.972 167.177C302.103 167.177 303.503 168.207 305.081 169.466C312.413 175.316 320.625 177.814 343.357 181.113C356.733 183.054 364.261 184.621 371.205 186.912C393.276 194.192 406.931 208.966 410.187 229.09C411.134 234.937 410.579 245.903 409.045 251.682C407.833 256.246 404.138 264.474 403.157 264.79C402.886 264.877 402.619 263.841 402.549 262.431C402.177 254.875 398.338 247.519 391.891 242.008C384.56 235.743 374.711 230.755 350.629 221.111ZM323.497 219.517C324.004 221.021 324.79 224.445 325.243 227.127C328.138 244.272 319.091 258.123 301.49 263.49C299.626 264.059 292.286 265.487 285.179 266.664C270.791 269.047 264.369 270.734 257.918 273.825C253.343 276.017 247.804 279.301 248.133 279.627C248.239 279.732 249.284 279.484 250.453 279.075C258.589 276.234 267.643 274.764 281.399 274.052C286.857 273.77 293.066 273.32 295.196 273.054C307.452 271.518 315.944 267.816 322.55 261.13C326.226 257.409 328.416 253.943 330.181 249.055C331.301 245.955 331.452 244.803 331.461 239.309C331.471 233.712 331.334 232.688 330.122 229.244C328.534 224.731 326.659 221.343 324.288 218.696L322.574 216.783L323.497 219.517ZM341.819 256.407C337.015 246.135 335.912 236.217 338.544 226.967C338.826 225.979 339.278 225.17 339.551 225.17C339.823 225.17 340.957 225.78 342.07 226.524C344.284 228.007 348.724 230.503 360.554 236.918C375.316 244.923 383.733 251.122 389.456 258.204C394.469 264.406 397.57 271.469 399.064 280.083C399.909 284.962 399.414 296.702 398.155 301.615C394.186 317.106 384.961 329.275 371.805 336.375C369.877 337.415 368.146 338.269 367.959 338.273C367.772 338.277 368.474 336.501 369.52 334.326C373.946 325.124 374.45 316.173 371.104 306.209C369.055 300.109 364.877 292.665 356.443 280.085C346.636 265.458 344.232 261.565 341.819 256.407ZM251.32 290.1C236.111 292.558 219.414 300.563 205.995 311.833L202 315.188L205.511 315.733C223.833 318.578 228.766 321.101 241.475 334.122C248.789 341.614 251.259 343.282 257.325 344.823C266.235 347.085 275.018 342.927 278.03 335.022C279.376 331.49 279.197 325.64 277.653 322.703C273.979 315.711 263.278 313.45 258.103 318.573C253.793 322.84 255.049 329.268 260.41 330.374C261.637 330.627 261.602 330.574 260.097 329.896C257.751 328.84 256.732 327.379 256.719 325.051C256.689 319.592 262.969 316.527 268.811 319.149C273.089 321.069 274.788 323.578 274.788 327.975C274.788 334.748 268.993 339.85 262.249 339.016C258.644 338.57 254.235 336.277 251.871 333.618C245.923 326.929 248.24 316.373 256.545 312.324C262.868 309.24 271.272 310 277.788 314.244C285.276 319.122 288.461 323.579 294.91 338.209C297.01 342.972 299.711 348.334 300.913 350.124C307.022 359.22 314.342 363.682 323.159 363.682C328.021 363.682 331.68 362.798 336.282 360.512C339.701 358.813 344.549 355.585 344.2 355.24C344.1 355.141 342.682 355.579 341.048 356.214C331.421 359.949 321.635 359.691 315.951 355.554C312.373 352.949 309.486 347.761 308.002 341.271C307.745 340.148 306.898 335.188 306.118 330.248C304.143 317.725 302.245 312.097 297.821 305.638C293.295 299.03 284.592 293.483 274.863 291.007C268.793 289.461 257.874 289.041 251.32 290.1ZM230.019 193.287C231.332 188.463 235.575 183.862 239.94 182.528C242.716 181.681 248.453 182.222 251.15 183.586C256.378 186.229 260.173 192.251 259.349 196.596C258.345 201.897 249.704 206.137 239.763 206.206C234.686 206.242 232.811 205.563 230.872 202.988C229.672 201.393 229.218 196.231 230.019 193.287ZM249.815 185.475C252.422 187.058 253.093 189.399 251.56 191.566C250.504 193.058 247.235 194.475 244.847 194.475C241.258 194.475 237.343 191.941 237.343 189.619C237.343 184.955 244.851 182.459 249.815 185.475ZM87.8821 494.565C66.9261 494.565 54.8981 482.537 54.8981 460.713V407.765H67.5461V459.721C67.5461 474.353 73.6221 483.653 87.8821 483.653C102.762 483.653 108.094 474.353 108.094 459.721V407.765H120.742V460.713C120.742 482.537 108.714 494.565 87.8821 494.565ZM166.278 430.333C179.05 430.333 187.606 438.517 187.606 452.777V493.077H175.454V458.357C175.454 454.513 175.206 450.669 174.09 448.189C172.726 443.849 169.75 440.625 162.93 440.625C153.258 440.625 146.934 448.809 146.934 458.605V493.077H134.782V431.821H146.81V440.501C150.282 435.293 156.978 430.333 166.278 430.333ZM201.839 407.765V422.521H213.991V407.765H201.839ZM201.839 431.821V493.077H213.991V431.821H201.839ZM252.746 494.565C237.742 494.565 226.458 487.249 225.094 472.865L237.246 471.005C237.99 480.677 244.438 485.265 253.242 485.265C261.302 485.265 266.634 481.669 266.634 475.717C266.634 470.509 262.666 468.773 253.986 466.789L244.81 464.681C234.766 462.449 227.698 457.985 227.698 448.313C227.698 437.897 238.114 430.333 252.374 430.333C265.89 430.333 275.438 437.153 276.926 448.685L264.898 450.793C264.278 443.973 259.442 439.633 252.002 439.633C244.686 439.633 240.098 443.105 240.098 447.817C240.098 452.529 243.818 453.893 250.886 455.505L260.062 457.613C272.214 460.341 279.034 464.433 279.034 474.601C279.034 486.753 267.254 494.565 252.746 494.565ZM283.262 431.821L302.358 493.077H315.13L329.638 444.717H329.762L344.146 493.077H356.918L376.014 431.821H363.366L350.47 478.941H350.346L336.086 431.821H323.19L309.054 478.941H308.93L296.034 431.821H283.262ZM402.246 494.565C391.334 494.565 381.166 487.993 381.166 476.461C381.166 465.177 388.978 460.093 402.122 457.365L410.802 455.629C417.126 454.265 420.226 452.901 420.226 447.817C420.226 442.981 416.01 439.509 408.694 439.509C400.51 439.509 395.178 444.593 394.806 452.529L382.406 451.413C383.15 438.517 393.442 430.333 408.446 430.333C423.574 430.333 432.502 437.525 432.502 451.041V493.077H420.722V486.257H420.598C417.746 490.721 411.298 494.565 402.246 494.565ZM405.47 485.637C414.026 485.637 420.598 480.057 420.598 470.509V462.449C409.438 464.309 403.362 465.921 399.518 468.029C396.046 469.889 393.69 472.369 393.69 476.213C393.69 481.917 398.526 485.637 405.47 485.637ZM446.817 431.821V516.017H458.969V484.025C462.069 488.861 468.393 494.565 479.057 494.565C495.549 494.565 506.461 481.421 506.461 462.449C506.461 443.477 495.549 430.333 479.057 430.333C468.269 430.333 461.945 436.161 458.845 441.121V431.821H446.817ZM494.061 462.449C494.061 475.097 488.109 484.645 476.453 484.645C465.045 484.645 458.473 475.097 458.473 462.449C458.473 449.801 465.045 440.253 476.453 440.253C488.109 440.253 494.061 449.801 494.061 462.449Z" fill="white"/>
</svg>
